<?xml version="1.0" encoding="utf-8"?>
<!-- Generator: Adobe Illustrator 16.0.0, SVG Export Plug-In . SVG Version: 6.00 Build 0)  -->
<!DOCTYPE svg PUBLIC "-//W3C//DTD SVG 1.1//EN" "http://www.w3.org/Graphics/SVG/1.1/DTD/svg11.dtd">
<svg version="1.1" xmlns="http://www.w3.org/2000/svg" xmlns:xlink="http://www.w3.org/1999/xlink" x="0px" y="0px"
	 width="269.822px" height="193.908px" viewBox="0 0 269.822 193.908" enable-background="new 0 0 269.822 193.908"
	 xml:space="preserve">
<g id="Layer_1" display="none">
	<g display="inline">
		<path fill="#303030" d="M262.623,70.479c-1.113,0-2.023,0.904-2.023,2.018v6.792c0,1.11,0.91,2.018,2.023,2.018
			c1.115,0,2.012-0.908,2.012-2.018v-6.792C264.635,71.384,263.738,70.479,262.623,70.479z M280.562,76.042
			c0-0.285,0.015-0.563,0.015-0.854c0-0.26-0.043-0.509-0.102-0.752c-0.934-9.791-7.892-17.165-16.607-17.165
			c-2.431,0-4.593,0.521-6.676,1.461c-2.93-11.407-8.702-20.824-16.774-27.36V9.246c0-1.675-1.505-3.027-3.169-3.027
			c-5.619,0-10.965,2.496-14.791,6.401l0.21-10.025c0.028-0.818-0.304-1.606-0.869-2.192c-0.578-0.586-1.359-0.911-2.184-0.911
			c-10.047,0-18.98,8.13-20.572,17.876c-2.821-0.155-5.96-0.079-8.282-0.079H68.319c-16.633,0-31.932,5.66-43.986,15.353
			l-0.69,0.427c-0.012,0.004-0.022-0.025-0.033-0.019l-4.268,3.053c-3.309,2.369-6.184,2.911-8.459,2.448
			c0.579-0.427,1.111-0.883,1.581-1.353c4.242-4.242,3.468-9.599,0.589-12.484c-2.625-2.622-7.183-3.382-10.814,0.246
			c-2.89,2.89-3.649,7.154-2.289,11.066c-0.745-0.028-1.447-0.166-2.065-0.423c-0.64-0.261-2.585-1.071-2.585-5.248
			c0-1.671-1.357-3.027-3.031-3.027c-1.668,0-3.024,1.356-3.024,3.027c0,7.153,3.96,9.866,6.322,10.842
			c2.557,1.056,5.504,1.1,8.314,0.481c2.235,1.866,5.175,3.057,8.521,3.057C3.382,56.559-1.84,71.315-1.84,87.297
			c0,26.6,14.192,50.485,38.412,62.586v42.77c0,0.927,0.271,1.787,0.984,2.358c0.716,0.579,1.584,0.796,2.477,0.601l8.894-1.976
			l9.902,2.619c0.257,0.071,0.506,0.102,0.763,0.102c0.663,0,1.31-0.217,1.845-0.629c0.745-0.572,1.179-1.455,1.179-2.396
			c0-4.484,0.007-10.487,0.018-15.985c0.008-4.65,0.015-8.788,0.015-11.485c0-1.902,0.513-7.965,7.103-7.965h104.742v34.647
			c0,0.962,0.317,1.874,1.093,2.445c0.528,0.384,1.078,0.578,1.714,0.578c0.312,0,0.586-0.05,0.883-0.137l8.405-2.705l7.073,2.647
			c0.905,0.347,1.91,0.231,2.721-0.297c0.809-0.528,1.309-1.41,1.36-2.373l1.887-35.551c19.682-1.854,38.966-9.599,53.23-21.454
			c17.707-14.714,27.263-35.017,27.696-58.8c0.007-0.076,0.021-0.152,0.021-0.235C280.577,76.458,280.562,76.251,280.562,76.042z
			 M8.181,32.914c-0.604,0.604-1.403,1.165-2.304,1.646c-0.81-1.776-0.824-3.849,0.647-5.317c0.459-0.459,0.894-0.687,1.306-0.687
			c0.329,0,0.644,0.148,0.94,0.445C9.389,29.619,9.961,31.134,8.181,32.914z M234.363,12.631v14.604
			c-4.036-1.935-7.109-3.425-11.03-4.427C224.981,17.883,228.982,13.825,234.363,12.631z M248.981,131.041
			c-13.859,11.522-32.832,18.921-52.051,20.281c-0.549,0.043-1.056,0.231-1.476,0.521c-0.977,0.462-1.679,1.417-1.742,2.574
			l-1.585,29.715H180.54V155.17c0-0.737-0.42-1.259-0.854-1.778c-0.507-0.999-1.663-1.548-2.851-1.548H85.943
			c7.248-6.055,11.935-14.308,11.935-24.073c0-16.535-13.447-30.054-29.979-30.054c-1.67,0-3.027,1.316-3.027,2.992
			c0,1.67,1.357,3.005,3.027,3.005c13.194,0,23.924,10.727,23.924,23.914c0,13.193-10.73,23.927-23.924,23.927
			c-0.517,0-0.994,0.131-1.421,0.362c-6.026,1.375-9.888,6.567-9.888,13.801c0,2.69-0.003,6.974-0.014,11.616
			c0,2.235-0.007,4.781-0.012,6.8H42.626V148.01c0-1.36-1.049-2.488-2.282-2.879c-0.119-0.08-0.311-0.16-0.448-0.231
			C17.842,133.97,4.105,111.9,4.105,87.297c0-20.153,9.31-38.091,23.874-49.882l0.014,0.055h-0.007c0.007,0,0.011,0.069,0.019,0.062
			c11.03-8.919,25.056-14.189,40.314-14.189h122.441c3.074,0,7.573-0.018,10.734,0.268c1.382,0.127,2.627-0.781,3.097-2.021
			c0.007-0.014,0.007-0.068,0.021-0.079c0.029-0.091,0.059-0.203,0.088-0.297c0.072-0.278,0.137-0.579,0.137-0.886
			c0-6.677,5.244-12.839,11.661-14.398l-0.37,20.622c0.231,2.109,3.442,1.791,6.128,2.336V28.87
			c14.79,4.01,25.857,16.369,29.562,33.501c0.015,0.058-0.036,0.097-0.021,0.159c-2.829,2.991-4.651,7.009-4.651,11.442v2.735
			c0,1.67,1.36,3.027,3.031,3.027c1.67,0,3.03-1.357,3.03-3.027v-2.735c0-5.873,4.781-10.65,10.654-10.65
			c5.866,0,10.474,5.653,10.641,12.94C274.226,98.461,265.431,117.385,248.981,131.041z M267.326,72.498v6.792
			c0,1.11,0.903,2.018,2.025,2.018c1.113,0,2.01-0.908,2.01-2.018v-6.792c0-1.114-0.896-2.018-2.01-2.018
			C268.229,70.479,267.326,71.384,267.326,72.498z"/>
		<ellipse fill="#303030" cx="222.371" cy="56.962" rx="4.911" ry="4.917"/>
	</g>
</g>
<g id="Layer_2">
	<g>
		<path fill="#303030" d="M202.258,0.003c-4.437-0.118-8.122,3.38-8.237,7.813c-0.115,4.429,3.383,8.12,7.817,8.236
			c4.429,0.118,8.116-3.383,8.231-7.818C210.188,3.801,206.687,0.115,202.258,0.003"/>
		<path fill="#303030" d="M219.285,42.929c-3.342,0-6.053,2.708-6.053,6.049c0,3.342,2.711,6.055,6.053,6.055
			c3.34,0,6.052-2.712,6.052-6.055C225.337,45.637,222.625,42.929,219.285,42.929"/>
		<polyline fill="#303030" points="257.607,40.069 257.607,57.894 269.822,48.978 		"/>
		<path fill="#303030" d="M234.355,0.84c-4.437-0.115-8.122,3.381-8.236,7.816c-0.113,4.429,3.383,8.115,7.819,8.233
			c4.424,0.113,8.114-3.383,8.229-7.816C242.283,4.636,238.785,0.955,234.355,0.84"/>
		<path fill="#303030" d="M82.882,82.263c-1.747,0-3.234-1.334-3.393-3.111c-1.71-19.284-17.7-19.454-18.979-19.418
			c-18.842,1.29-19.259,18.415-19.271,19.144c-0.021,1.88-1.56,3.437-3.436,3.38c-1.876-0.017-3.39-1.54-3.386-3.42
			c0.002-0.241,0.384-24.243,25.716-25.915c0.043-0.002,0.086-0.005,0.129-0.007c0.24-0.023,23.72-0.347,26.021,25.632
			c0.168,1.88-1.219,3.536-3.098,3.701C83.086,82.258,82.983,82.263,82.882,82.263"/>
		<path fill="#303030" d="M82.743,82.263c-1.747,0-3.236-1.334-3.395-3.111C76.123,42.739,45.258,42.58,43.226,42.594
			c-15.08,1.02-25.773,7.403-31.776,18.977c-4.544,8.754-4.624,17.208-4.626,17.294c-0.005,1.879-1.531,3.397-3.412,3.397H3.4
			c-1.886-0.005-3.407-1.541-3.4-3.425c0.002-0.411,0.098-10.206,5.394-20.41c4.943-9.527,15.454-21.19,37.46-22.647
			c0.077-0.002,0.062-0.01,0.458-0.01c1.809,0,10.586,0.261,19.799,4.966c9.405,4.802,21.037,15.262,23.031,37.811
			c0.168,1.88-1.216,3.536-3.095,3.701C82.947,82.258,82.844,82.263,82.743,82.263"/>
		<path fill="#303030" d="M166.028,126.204h-7.758c-4.393-0.015-12.862-2.821-13.554-13.34c-0.005-0.043-0.005-0.087-0.007-0.13
			c-0.12-4.3,2.5-12.688,13.261-13.643c1.872-0.168,3.532,1.219,3.697,3.101c0.166,1.876-1.221,3.531-3.098,3.694
			c-6.588,0.586-7.029,5.476-7.039,6.627c0.494,6.651,6.108,6.867,6.752,6.872h7.745c1.886,0,3.411,1.525,3.411,3.406
			C169.439,124.679,167.914,126.204,166.028,126.204"/>
		<path fill="#303030" d="M166.028,105.901h-6.692c-1.881,0-3.409-1.526-3.409-3.412c0-1.881,1.528-3.407,3.409-3.407h6.692
			c1.886,0,3.411,1.526,3.411,3.407C169.439,104.375,167.914,105.901,166.028,105.901"/>
		<path fill="#303030" d="M182.634,193.908h-13.562c-1.878,0-3.406-1.526-3.406-3.412v-22.071c0-1.883,1.528-3.409,3.406-3.409
			c1.889,0,3.414,1.526,3.414,3.409v18.66h10.147c1.883,0,3.411,1.525,3.411,3.411S184.517,193.908,182.634,193.908"/>
		<path fill="#303030" d="M166.028,146.507h-7.758c-4.393-0.014-12.862-2.821-13.554-13.34c-0.005-0.043-0.005-0.086-0.007-0.13
			c-0.12-4.299,2.503-12.688,13.261-13.642c1.872-0.168,3.532,1.219,3.697,3.1c0.166,1.876-1.221,3.531-3.098,3.694
			c-6.588,0.586-7.029,5.476-7.039,6.632c0.494,6.651,6.108,6.862,6.752,6.862h7.745c1.886,0,3.411,1.526,3.411,3.412
			C169.439,144.979,167.914,146.507,166.028,146.507"/>
		<path fill="#303030" d="M166.028,126.204h-6.692c-1.881,0-3.409-1.525-3.409-3.412c0-1.881,1.528-3.406,3.409-3.406h6.692
			c1.886,0,3.411,1.525,3.411,3.406C169.439,124.679,167.914,126.204,166.028,126.204"/>
		<polyline fill="#303030" points="194.023,7.815 194.023,16.473 200.266,12.625 		"/>
		<polyline fill="#303030" points="222.992,13.192 242.168,9.072 242.168,18.811 		"/>
		<path fill="#303030" d="M217.205,12.625c2.645,0,5.137,0.204,7.366,0.558c0.936-1.272,1.504-2.832,1.55-4.528
			c0.115-4.434-3.388-8.117-7.819-8.232c-4.432-0.119-8.114,3.378-8.232,7.812c-0.043,1.752,0.48,3.38,1.396,4.723
			C213.261,12.748,215.188,12.625,217.205,12.625"/>
		<path fill="#303030" d="M169.757,170.172c-49.858,0-90.421-40.565-90.421-90.429c0-1.881,1.526-3.407,3.409-3.407h70.807
			c2.783-0.335,11.197-2.147,14.518-11.835l9.562-27.925c5.772-17.958,20.337-28.292,39.937-28.292
			c23.502,0,42.619,19.118,42.619,42.616l-0.204,34.748c0,0.068-0.002,0.137-0.01,0.209
			C256.818,133.134,217.188,170.172,169.757,170.172 M86.227,83.156c1.795,44.527,38.576,80.195,83.53,80.195
			c43.818,0,80.432-34.19,83.404-77.848l0.202-34.624c0-19.716-16.059-35.771-35.796-35.771c-16.685,0-28.566,8.387-33.463,23.618
			l-9.578,27.987c-4.695,13.71-16.812,16.036-20.418,16.425c-0.118,0.014-0.24,0.019-0.36,0.019H86.227z"/>
	</g>
</g>
</svg>
