<?xml version="1.0" encoding="utf-8"?>
<!-- Generator: Adobe Illustrator 16.0.0, SVG Export Plug-In . SVG Version: 6.00 Build 0)  -->
<!DOCTYPE svg PUBLIC "-//W3C//DTD SVG 1.1//EN" "http://www.w3.org/Graphics/SVG/1.1/DTD/svg11.dtd">
<svg version="1.1" id="Layer_1" xmlns="http://www.w3.org/2000/svg" xmlns:xlink="http://www.w3.org/1999/xlink" x="0px" y="0px"
	 width="493.444px" height="256.617px" viewBox="0 0 493.444 256.617" enable-background="new 0 0 493.444 256.617"
	 xml:space="preserve">
<g>
	<path fill="#231F20" d="M94.499,43.215c-11.914,0-21.607-9.692-21.607-21.607C72.892,9.693,82.585,0,94.499,0
		s21.605,9.693,21.605,21.607C116.104,33.522,106.413,43.215,94.499,43.215z M94.499,7c-8.055,0-14.607,6.553-14.607,14.607
		s6.553,14.607,14.607,14.607c8.054,0,14.605-6.553,14.605-14.607S102.553,7,94.499,7z"/>
	<path fill="#231F20" d="M219.308,43.215c-11.914,0-21.607-9.692-21.607-21.607c0-11.912,9.693-21.605,21.607-21.605
		s21.607,9.693,21.607,21.605C240.915,33.522,231.222,43.215,219.308,43.215z M219.308,7.002c-8.055,0-14.607,6.553-14.607,14.605
		c0,8.055,6.553,14.607,14.607,14.607s14.607-6.553,14.607-14.607C233.915,13.555,227.362,7.002,219.308,7.002z"/>
	<path fill="#231F20" d="M39.714,43.215c-1.934,0-3.5-1.566-3.5-3.5V11.951L24.081,24.083c-1.366,1.367-3.583,1.366-4.949,0
		L7,11.951v27.764c0,1.934-1.567,3.5-3.5,3.5S0,41.648,0,39.715V3.502C0,2.087,0.853,0.811,2.161,0.27
		C3.47-0.273,4.974,0.026,5.975,1.027l15.632,15.631L37.239,1.027c1-1.001,2.505-1.301,3.813-0.758
		c1.308,0.541,2.161,1.817,2.161,3.232v36.213C43.214,41.648,41.646,43.215,39.714,43.215z"/>
	<g>
		<path fill="#231F20" d="M148.288,43.215c-1.934,0-3.5-1.566-3.5-3.5V3.502c0-1.933,1.566-3.5,3.5-3.5h18.107
			c1.933,0,3.5,1.567,3.5,3.5c0,1.934-1.567,3.5-3.5,3.5h-14.607v32.713C151.788,41.648,150.221,43.215,148.288,43.215z"/>
		<path fill="#231F20" d="M166.396,25.107h-18.107c-1.934,0-3.5-1.566-3.5-3.5c0-1.933,1.566-3.5,3.5-3.5h18.107
			c1.933,0,3.5,1.567,3.5,3.5C169.896,23.541,168.328,25.107,166.396,25.107z"/>
	</g>
	<path fill="#231F20" d="M310.312,43.215c-0.912,0-1.807-0.355-2.477-1.025l-30.238-30.238v27.764c0,1.934-1.566,3.5-3.5,3.5
		c-1.933,0-3.5-1.566-3.5-3.5V3.5c0-1.415,0.854-2.691,2.161-3.232c1.309-0.544,2.813-0.242,3.814,0.758l30.237,30.24V3.5
		c0-1.933,1.567-3.5,3.5-3.5c1.934,0,3.5,1.567,3.5,3.5v36.215c0,1.416-0.852,2.692-2.16,3.234
		C311.216,43.129,310.762,43.215,310.312,43.215z"/>
	<path fill="#37B34A" d="M471.838,43.215c-11.914,0-21.606-9.692-21.606-21.607c0-11.912,9.692-21.605,21.606-21.605
		s21.606,9.693,21.606,21.605C493.444,33.522,483.752,43.215,471.838,43.215z M471.838,7.002c-8.054,0-14.606,6.553-14.606,14.605
		c0,8.055,6.553,14.607,14.606,14.607s14.606-6.553,14.606-14.607C486.444,13.555,479.892,7.002,471.838,7.002z"/>
	<path fill="#37B34A" d="M423.562,21.643c0-1.934-1.566-3.5-3.5-3.5h-9.819c-1.933,0-3.5,1.566-3.5,3.5c0,1.933,1.567,3.5,3.5,3.5
		h5.853c-1.57,6.403-7.293,11.072-14.154,11.072c-8.055,0-14.606-6.553-14.606-14.607c0-8.053,6.552-14.605,14.606-14.605
		c4.131,0,8.094,1.779,10.871,4.881c1.291,1.44,3.504,1.561,4.942,0.271c1.44-1.289,1.562-3.502,0.272-4.941
		c-4.104-4.582-9.967-7.211-16.086-7.211c-11.914,0-21.606,9.693-21.606,21.605c0,11.915,9.692,21.607,21.606,21.607
		c11.699,0,21.176-9.164,21.574-20.865c0.002-0.049-0.01-0.097-0.01-0.146C423.534,22.02,423.562,21.834,423.562,21.643z"/>
	<g>
		<path fill="none" stroke="#231F20" stroke-width="7" stroke-linecap="round" stroke-linejoin="round" stroke-miterlimit="10" d="
			M299.245,149.965"/>
		<path fill="#231F20" d="M285.22,256.617h-81.504c-5.988,0-10.859-4.871-10.859-10.857s4.871-10.857,10.859-10.857h15.656
			c0.828-0.798,0.881-1.413,0.902-1.646c0.133-1.547-1.25-3.448-1.91-4.207c-14.829-8.688-24.27-23.945-25.393-41.032
			c-0.074-0.28-0.115-0.573-0.115-0.876v-50.572c0-1.933,1.567-3.5,3.5-3.5h96.035c1.934,0,3.5,1.567,3.5,3.5v50.572
			c0,0.31-0.039,0.608-0.115,0.895c-1.129,17.111-10.538,32.309-25.349,40.995c-0.005,0.004-0.009,0.009-0.013,0.013
			c-0.738,0.75-2.254,2.842-2.137,4.427c0.025,0.348,0.133,0.835,0.666,1.433h16.275c5.986,0,10.857,4.871,10.857,10.857
			S291.206,256.617,285.22,256.617z M203.716,241.902c-2.128,0-3.859,1.73-3.859,3.857s1.731,3.857,3.859,3.857h81.504
			c2.127,0,3.857-1.73,3.857-3.857s-1.73-3.857-3.857-3.857h-17.6c-0.761,0-1.5-0.247-2.107-0.705
			c-3.245-2.446-4.086-5.302-4.219-7.266c-0.252-3.697,1.747-6.896,3.085-8.597c0.286-0.747,0.828-1.396,1.569-1.807
			c13.52-7.509,22.072-21.181,22.881-36.571c0.008-0.173,0.029-0.342,0.062-0.507v-46.382h-89.035v46.386
			c0.034,0.164,0.057,0.332,0.064,0.504c0.795,15.178,9.184,28.754,22.439,36.315c0.419,0.238,0.771,0.553,1.05,0.918
			c1.124,1.229,4.235,5.08,3.837,9.67c-0.176,2.028-1.125,4.961-4.652,7.414c-0.586,0.408-1.283,0.627-1.998,0.627H203.716z"/>
		<path fill="#231F20" d="M276.813,140.068h-24.418c-1.197,0-2.311-0.611-2.953-1.62c-0.643-1.01-0.725-2.277-0.219-3.361
			l19.16-41.025c2.268-4.853,7.195-7.989,12.552-7.989c2.031,0,3.999,0.439,5.851,1.303l1.305,0.611
			c3.348,1.562,5.889,4.338,7.152,7.814c1.262,3.475,1.096,7.233-0.469,10.584l-14.789,31.665
			C279.409,139.281,278.173,140.068,276.813,140.068z M257.893,133.068h16.693l13.846-29.646c0.773-1.656,0.855-3.515,0.231-5.232
			c-0.623-1.718-1.879-3.09-3.535-3.862l-1.307-0.611c-0.914-0.427-1.886-0.644-2.886-0.644c-2.65,0-5.088,1.551-6.21,3.951
			L257.893,133.068z"/>
	</g>
	<g>
		<path fill="#231F20" d="M239.375,193.758c-0.911,0-1.806-0.355-2.476-1.025l-16.312-16.312v13.837c0,1.933-1.567,3.5-3.5,3.5
			s-3.5-1.567-3.5-3.5v-22.287c0-1.416,0.853-2.691,2.161-3.233c1.308-0.542,2.812-0.242,3.814,0.759l16.311,16.312v-13.837
			c0-1.933,1.566-3.5,3.5-3.5s3.5,1.567,3.5,3.5v22.287c0,1.416-0.853,2.691-2.16,3.233
			C240.28,193.671,239.825,193.758,239.375,193.758z"/>
		<g>
			<path fill="#231F20" d="M262.72,193.939c-1.933,0-3.5-1.567-3.5-3.5v-10.313l-9.498-9.499c-1.367-1.367-1.367-3.583,0-4.949
				c1.367-1.367,3.584-1.367,4.95,0l10.523,10.524c0.656,0.656,1.024,1.547,1.024,2.475v11.763
				C266.22,192.372,264.653,193.939,262.72,193.939z"/>
			<path fill="#231F20" d="M262.72,182.177c-0.895,0-1.791-0.342-2.475-1.025c-1.367-1.366-1.367-3.582,0-4.949l10.523-10.524
				c1.367-1.367,3.584-1.367,4.949,0c1.367,1.366,1.367,3.582,0.001,4.949l-10.523,10.524
				C264.512,181.835,263.616,182.177,262.72,182.177z"/>
		</g>
	</g>
	<circle fill="#231F20" cx="347.086" cy="22.44" r="4.024"/>
</g>
</svg>
