<?xml version="1.0" encoding="utf-8"?>
<!-- Generator: Adobe Illustrator 16.0.0, SVG Export Plug-In . SVG Version: 6.00 Build 0)  -->
<!DOCTYPE svg PUBLIC "-//W3C//DTD SVG 1.1//EN" "http://www.w3.org/Graphics/SVG/1.1/DTD/svg11.dtd">
<svg version="1.1" id="Layer_1" xmlns="http://www.w3.org/2000/svg" xmlns:xlink="http://www.w3.org/1999/xlink" x="0px" y="0px"
	 width="106.389px" height="170.543px" viewBox="0 0 106.389 170.543" enable-background="new 0 0 106.389 170.543"
	 xml:space="preserve">
<g>
	
		<path fill="#FFFFFF" stroke="#231F20" stroke-width="7" stroke-linecap="round" stroke-linejoin="round" stroke-miterlimit="10" d="
		M106.389,63.891"/>
	<path fill="#FFFFFF" d="M92.363,170.543H10.857C4.871,170.543,0,165.672,0,159.686s4.871-10.857,10.857-10.857h15.656
		c0.828-0.797,0.883-1.412,0.902-1.646c0.135-1.548-1.25-3.448-1.908-4.208c-14.83-8.687-24.271-23.944-25.393-41.031
		C0.039,101.662,0,101.369,0,101.066V50.495c0-1.933,1.566-3.5,3.5-3.5h96.035c1.932,0,3.5,1.567,3.5,3.5v50.571
		c0,0.31-0.041,0.609-0.115,0.895c-1.131,17.113-10.539,32.311-25.352,40.996c-0.004,0.004-0.008,0.008-0.01,0.012
		c-0.74,0.75-2.256,2.842-2.139,4.428c0.025,0.348,0.133,0.835,0.666,1.432h16.277c5.986,0,10.855,4.871,10.855,10.857
		S98.35,170.543,92.363,170.543z M10.857,155.828c-2.127,0-3.857,1.73-3.857,3.857s1.73,3.857,3.857,3.857h81.506
		c2.125,0,3.855-1.73,3.855-3.857s-1.73-3.857-3.855-3.857H74.762c-0.76,0-1.5-0.247-2.105-0.705
		c-3.246-2.445-4.086-5.301-4.221-7.266c-0.252-3.697,1.748-6.896,3.086-8.598c0.287-0.746,0.828-1.395,1.568-1.806
		c13.52-7.508,22.074-21.179,22.881-36.571c0.01-0.172,0.031-0.342,0.064-0.506V53.995H7v46.385
		c0.033,0.164,0.055,0.332,0.064,0.504c0.795,15.179,9.184,28.755,22.438,36.315c0.42,0.239,0.773,0.554,1.051,0.918
		c1.123,1.229,4.234,5.08,3.838,9.67c-0.176,2.029-1.127,4.961-4.654,7.414c-0.586,0.408-1.283,0.627-1.998,0.627H10.857z"/>
	<path fill="#FFFFFF" d="M83.957,53.995h-24.42c-1.195,0-2.311-0.611-2.953-1.62c-0.641-1.01-0.725-2.277-0.219-3.361l19.16-41.025
		C77.795,3.135,82.721,0,88.078,0c2.031,0,4,0.438,5.85,1.303l1.303,0.608c3.352,1.563,5.893,4.34,7.154,7.815
		s1.096,7.234-0.469,10.585L87.127,51.977C86.553,53.208,85.316,53.995,83.957,53.995z M65.035,46.995h16.693L95.574,17.35
		c0.773-1.656,0.855-3.515,0.23-5.232c-0.623-1.719-1.879-3.09-3.535-3.863l-1.305-0.609C90.049,7.217,89.078,7,88.078,7
		c-2.65,0-5.088,1.551-6.209,3.951L65.035,46.995z"/>
	<path fill="#FFFFFF" d="M65.488,112.27c-1.934,0-3.5-1.567-3.5-3.5V89.461l-7.906,7.904c-1.367,1.367-3.582,1.367-4.949,0
		l-7.9-7.902v19.307c0,1.933-1.568,3.5-3.5,3.5c-1.934,0-3.5-1.567-3.5-3.5V81.014c0-1.416,0.852-2.692,2.16-3.234
		s2.812-0.242,3.814,0.76l11.4,11.401l11.406-11.402c1-1.001,2.506-1.302,3.814-0.759c1.309,0.542,2.16,1.818,2.16,3.234v27.756
		C68.988,110.702,67.422,112.27,65.488,112.27z"/>
</g>
</svg>
