<?xml version="1.0" encoding="utf-8"?>
<!-- Generator: Adobe Illustrator 16.0.0, SVG Export Plug-In . SVG Version: 6.00 Build 0)  -->
<!DOCTYPE svg PUBLIC "-//W3C//DTD SVG 1.1//EN" "http://www.w3.org/Graphics/SVG/1.1/DTD/svg11.dtd">
<svg version="1.1" id="Layer_1" xmlns="http://www.w3.org/2000/svg" xmlns:xlink="http://www.w3.org/1999/xlink" x="0px" y="0px"
	 width="262.928px" height="356.824px" viewBox="0 0 262.928 356.824" enable-background="new 0 0 262.928 356.824"
	 xml:space="preserve">
<circle fill="#303030" cx="84.283" cy="180.246" r="8.078"/>
<circle fill="#303030" cx="44.105" cy="177.598" r="2.647"/>
<circle fill="#303030" cx="184.283" cy="180.246" r="7.907"/>
<g>
	<path fill="#303030" d="M137.563,262.581c-0.703,0-1.41-0.246-1.979-0.747c-1.244-1.094-1.366-2.989-0.272-4.233
		c4.521-5.146,7.982-4.452,12.771-3.493c1.924,0.385,4.318,0.864,7.472,1.151c1.229,0.104,1.487-0.314,1.649-0.568
		c1.238-1.957,0.544-7.676-2.241-12.401c-1.696-2.88-3.458-4.146-4.504-4.048c-1.075,0.057-2.144-0.478-2.725-1.413
		c-9.853-15.873-5.139-48.923-0.073-58.039c0.804-1.449,2.63-1.97,4.079-1.166c1.448,0.805,1.97,2.631,1.165,4.08
		c-4.175,7.516-8.277,36.531-0.797,50.697c2.954,0.617,5.748,2.98,8.023,6.843c3.262,5.533,5.12,13.952,2.141,18.657
		c-1.541,2.435-4.113,3.623-7.261,3.333c-3.474-0.315-6.042-0.829-8.105-1.242c-4.396-0.882-4.854-0.973-7.089,1.57
		C139.224,262.236,138.396,262.581,137.563,262.581z"/>
</g>
<g>
	<path fill="#303030" d="M150.19,292.402c-4.912,0-7.863-0.92-10.259-1.666c-2.908-0.905-4.235-1.319-8.435,0.794
		c-0.954,0.479-2.093,0.417-2.987-0.166c-3.602-2.349-9.919-1.362-16.028-0.407c-7.482,1.17-15.22,2.378-19.119-2.937
		c-0.979-1.336-0.691-3.214,0.646-4.193c1.335-0.98,3.213-0.69,4.193,0.645c1.738,2.372,7.644,1.448,13.354,0.558
		c6.274-0.98,13.312-2.08,18.695,0.454c4.99-2.203,7.737-1.638,11.465-0.476c3.396,1.058,7.626,2.376,18.506,0.292
		c1.632-0.316,3.199,0.756,3.511,2.382c0.312,1.628-0.755,3.199-2.382,3.511C156.737,292.076,153.116,292.402,150.19,292.402z"/>
</g>
<g>
	<path fill="#303030" d="M110.376,169.496c-0.901,0-1.792-0.404-2.382-1.174c-0.629-0.65-3.915-1.646-6.844-2.065l-40.721,1.986
		c-1.632,0.09-3.062-1.195-3.143-2.851c-0.081-1.655,1.195-3.062,2.851-3.143l41-2c0.18-0.008,0.361-0.001,0.54,0.022
		c2.579,0.341,8.82,1.453,11.079,4.398c1.008,1.314,0.76,3.198-0.555,4.206C111.656,169.293,111.014,169.496,110.376,169.496z"/>
</g>
<g>
	<path fill="#303030" d="M130.685,311.076c-9.505,0-15.592-5.741-16.052-5.935c-2.037-0.854-3.894-3.405-3.039-5.442
		c0.854-2.034,3.191-2.993,5.228-2.146c0.195,0.081,14.173,5.714,26.825,0.042c2.015-0.904,4.382-0.003,5.286,2.015
		c0.903,2.016-1.649,4.457-3.666,5.361C139.837,307.405,135.615,311.076,130.685,311.076z"/>
</g>
<path fill="#303030" d="M255.149,152.347c-5.475-2.521-12.311-0.348-18.199,5.21v-32.312c0-22.809-7.351-43.931-19.801-61.132
	c-0.377-4.282-1.584-16.002-3.999-22.859c-2.638-7.488-12.367-25.01-23.367-24.01c-2.022-7.373-23.387-14.947-31-10
	c-1.77-3.816-14.204-7.246-21.219-6c-4.402-3.016-29.781-1-34.781,11c-9.461-6.666-37.001,10.001-45,21
	c-3.726,5.124-5.257,9.683-5.103,13.853c4.103,3.501,7.994,9.879,11.61,19.058c2.33,5.913,3.953,11.486,4.789,14.594
	c40.047-9.957,129.722-10.662,137.203,0.996c4.022,6.268,14.58,24.627,14.5,39c-0.035,6.29,4.678,6.265,7.167,10.096v106.367
	l-9.167,6.037c0,0-5,19.5-11.5,29c-2.66,3.888-10.43,12.214-19.604,21.037c0.014-8.147-1.457-17.247-7.414-21.026
	c-6.446-4.089-18.753-6.192-22.371-6.74c-5.201-0.787-14.142-1.756-20.294-0.354c-8.576-2.204-23.32-1.487-29.673-1.038
	c-24.036,1.7-27.305,5.436-28.535,6.842c-2.274,2.599-4.5,7.201-5.002,29.808c-7.966-11.015-26.715-44.65-27.606-62.027
	l-11.675-6.813l-2.587-97.795c4.284-3.927,10.878-6.392,10.232-12.391c-0.888-8.238,3.962-26.449,8.03-32.5
	c1.91-2.841,7.091-5.334,14.442-7.46c-2.37-8.917-8.078-25.758-15.224-31.726c-8.855,2.921-20.218,16.413-22.218,28.187
	c-2.691,15.843-3.578,29.159-3.865,35.507c-0.415,3.776-0.635,7.609-0.635,11.493l0.812,30.666
	c-5.426-4.32-11.417-5.82-16.316-3.564c-3.343,1.539-13.474,8.774-3.493,37.264c6.149,17.554,6.59,28.481,6.881,35.713
	c0.394,9.784,1.065,14.24,12.842,17.34c0.213,0.056,2.895,0.771,3.105,0.771c0.675,0-0.185-1.375-0.691-1.436
	c1.368,17.828,12.467,47.085,18.845,55.059c1.009,1.262,2.604,3.408,4.623,6.127c10.022,13.491,28.676,38.604,42.685,46.483
	c11.069,6.227,27.733,7.156,36.682,7.156c0,0,0.001,0,0.002,0c11.422,0,22.896-1.459,29.945-3.809
	c14.216-4.739,48.364-34.247,59.621-57.295l2.01-4.105c9.051-18.455,15.652-31.967,16.072-49.29
	c-0.751-0.095-1.435,0.671-0.938,0.671c0.211,0-0.071,0.795,0.146,0.75c15.167-3.167,15.251-8.638,15.646-18.422
	c0.291-7.231,0.731-18.159,6.881-35.713C268.624,161.122,258.492,153.886,255.149,152.347z M25.282,237.828
	c-8.699-2.289-8.763-3.879-9.119-12.706c-0.303-7.528-0.762-18.905-7.158-37.163c-6.83-19.494-3.803-28.92,0.865-31.069
	c3.52-1.623,9.224,0.163,14.41,6.051l1.996,75.421C25.997,238.12,25.665,237.928,25.282,237.828z M173.445,305.951
	c-0.026,0.13-0.04,0.259-0.059,0.389c-9.134,7.888-17.879,14.472-23.104,16.406c-13.5,5-37-1-41.5-3.5
	c-2.911-1.617-13.144-5.328-21.498-9.235c0.042-20.742,1.284-27.816,1.932-30.092c7.453-2.565,38.361-4.863,46-1.905
	c1.568,0.607,3.308,0.583,4.857-0.066c4.437-1.859,26.348,1.134,33.039,5.172C174.837,285.451,175.314,296.756,173.445,305.951z
	 M253.923,187.958c-6.396,18.258-6.854,29.635-7.158,37.163c-0.355,8.827-0.42,10.417-9.119,12.706
	c-0.256,0.067-0.484,0.182-0.696,0.316V165.03c5.595-7.562,12.198-9.943,16.108-8.141
	C257.726,159.038,260.753,168.464,253.923,187.958z"/>
<path fill="#303030" d="M217.095,164.558c-0.022-0.022-0.05-0.038-0.073-0.06c-0.714-0.825-3.528-3.486-10.967-4.801
	c-10.033-1.774-24.16-0.466-41.983,3.883c-1.61,0.393-2.597,2.016-2.203,3.626c0.334,1.371,1.561,2.289,2.912,2.289
	c0.235,0,0.475-0.028,0.713-0.086c38.507-9.396,46.932-1.048,47.013-0.962c-0.063-0.067-0.089-0.106-0.089-0.106
	c1.015,1.015,3.663,0.906,4.678-0.108C218.11,167.218,218.11,165.573,217.095,164.558z"/>
</svg>
