<?xml version="1.0" encoding="utf-8"?>
<!-- Generator: Adobe Illustrator 16.0.0, SVG Export Plug-In . SVG Version: 6.00 Build 0)  -->
<!DOCTYPE svg PUBLIC "-//W3C//DTD SVG 1.1//EN" "http://www.w3.org/Graphics/SVG/1.1/DTD/svg11.dtd">
<svg version="1.1" id="Layer_1" xmlns="http://www.w3.org/2000/svg" xmlns:xlink="http://www.w3.org/1999/xlink" x="0px" y="0px"
	 width="493.444px" height="43.215px" viewBox="0 0 493.444 43.215" enable-background="new 0 0 493.444 43.215"
	 xml:space="preserve">
<path fill="#FFFFFF" d="M94.499,43.215c-11.914,0-21.607-9.692-21.607-21.607C72.892,9.693,82.585,0,94.499,0
	s21.605,9.693,21.605,21.607C116.104,33.522,106.413,43.215,94.499,43.215z M94.499,7c-8.055,0-14.607,6.553-14.607,14.607
	s6.553,14.607,14.607,14.607c8.054,0,14.605-6.553,14.605-14.607S102.553,7,94.499,7z"/>
<path fill="#FFFFFF" d="M219.308,43.215c-11.914,0-21.607-9.692-21.607-21.607c0-11.912,9.693-21.605,21.607-21.605
	s21.607,9.693,21.607,21.605C240.915,33.522,231.222,43.215,219.308,43.215z M219.308,7.002c-8.055,0-14.607,6.553-14.607,14.605
	c0,8.055,6.553,14.607,14.607,14.607s14.607-6.553,14.607-14.607C233.915,13.555,227.362,7.002,219.308,7.002z"/>
<path fill="#FFFFFF" d="M39.714,43.215c-1.934,0-3.5-1.566-3.5-3.5V11.951L24.081,24.083c-1.366,1.367-3.583,1.366-4.949,0L7,11.951
	v27.764c0,1.934-1.567,3.5-3.5,3.5S0,41.648,0,39.715V3.502C0,2.087,0.853,0.811,2.161,0.27C3.47-0.273,4.974,0.026,5.975,1.027
	l15.632,15.631L37.239,1.027c1-1.001,2.505-1.301,3.813-0.758c1.308,0.541,2.161,1.817,2.161,3.232v36.213
	C43.214,41.648,41.646,43.215,39.714,43.215z"/>
<g>
	<path fill="#FFFFFF" d="M148.288,43.215c-1.934,0-3.5-1.566-3.5-3.5V3.502c0-1.933,1.566-3.5,3.5-3.5h18.107
		c1.933,0,3.5,1.567,3.5,3.5c0,1.934-1.567,3.5-3.5,3.5h-14.607v32.713C151.788,41.648,150.221,43.215,148.288,43.215z"/>
	<path fill="#FFFFFF" d="M166.396,25.107h-18.107c-1.934,0-3.5-1.566-3.5-3.5c0-1.933,1.566-3.5,3.5-3.5h18.107
		c1.933,0,3.5,1.567,3.5,3.5C169.896,23.541,168.328,25.107,166.396,25.107z"/>
</g>
<path fill="#FFFFFF" d="M310.312,43.215c-0.912,0-1.807-0.355-2.477-1.025l-30.238-30.238v27.764c0,1.934-1.566,3.5-3.5,3.5
	c-1.933,0-3.5-1.566-3.5-3.5V3.5c0-1.415,0.854-2.691,2.161-3.232c1.309-0.544,2.813-0.242,3.814,0.758l30.237,30.24V3.5
	c0-1.933,1.567-3.5,3.5-3.5c1.934,0,3.5,1.567,3.5,3.5v36.215c0,1.416-0.852,2.692-2.16,3.234
	C311.216,43.129,310.762,43.215,310.312,43.215z"/>
<path fill="#37B34A" d="M471.838,43.215c-11.914,0-21.606-9.692-21.606-21.607c0-11.912,9.692-21.605,21.606-21.605
	s21.606,9.693,21.606,21.605C493.444,33.522,483.752,43.215,471.838,43.215z M471.838,7.002c-8.054,0-14.606,6.553-14.606,14.605
	c0,8.055,6.553,14.607,14.606,14.607s14.606-6.553,14.606-14.607C486.444,13.555,479.892,7.002,471.838,7.002z"/>
<path fill="#37B34A" d="M423.562,21.643c0-1.934-1.566-3.5-3.5-3.5h-9.819c-1.933,0-3.5,1.566-3.5,3.5c0,1.933,1.567,3.5,3.5,3.5
	h5.853c-1.57,6.403-7.293,11.072-14.154,11.072c-8.055,0-14.606-6.553-14.606-14.607c0-8.053,6.552-14.605,14.606-14.605
	c4.131,0,8.094,1.779,10.871,4.881c1.291,1.44,3.504,1.561,4.942,0.271c1.44-1.289,1.562-3.502,0.272-4.941
	c-4.104-4.582-9.967-7.211-16.086-7.211c-11.914,0-21.606,9.693-21.606,21.605c0,11.915,9.692,21.607,21.606,21.607
	c11.699,0,21.176-9.164,21.574-20.865c0.002-0.049-0.01-0.097-0.01-0.146C423.534,22.02,423.562,21.834,423.562,21.643z"/>
<circle fill="#FFFFFF" cx="347.086" cy="22.44" r="4.024"/>
</svg>
