<?xml version="1.0" encoding="utf-8"?>
<!-- Generator: Adobe Illustrator 16.0.0, SVG Export Plug-In . SVG Version: 6.00 Build 0)  -->
<!DOCTYPE svg PUBLIC "-//W3C//DTD SVG 1.1//EN" "http://www.w3.org/Graphics/SVG/1.1/DTD/svg11.dtd">
<svg version="1.1" id="Layer_1" xmlns="http://www.w3.org/2000/svg" xmlns:xlink="http://www.w3.org/1999/xlink" x="0px" y="0px"
	 width="291.333px" height="196.865px" viewBox="0 0 291.333 196.865" enable-background="new 0 0 291.333 196.865"
	 xml:space="preserve">
<g>
	<path fill="#303030" d="M273.378,70.987c-1.113,0-2.023,0.904-2.023,2.018v6.792c0,1.11,0.91,2.018,2.023,2.018
		c1.115,0,2.012-0.908,2.012-2.018v-6.792C275.39,71.892,274.494,70.987,273.378,70.987z M291.318,76.549
		c0-0.285,0.015-0.563,0.015-0.854c0-0.26-0.043-0.509-0.102-0.752c-0.934-9.791-7.892-17.165-16.607-17.165
		c-2.431,0-4.593,0.521-6.676,1.461c-2.93-11.407-8.702-20.824-16.774-27.36V9.754c0-1.675-1.505-3.027-3.169-3.027
		c-5.619,0-10.965,2.496-14.791,6.401l0.21-10.025c0.028-0.818-0.304-1.606-0.869-2.192C231.976,0.325,231.195,0,230.371,0
		c-10.047,0-18.98,8.13-20.572,17.876c-2.821-0.155-5.96-0.079-8.282-0.079H79.075c-16.633,0-31.932,5.66-43.986,15.353l-0.69,0.427
		c-0.012,0.004-0.022-0.025-0.033-0.019l-4.268,3.053c-3.309,2.369-6.184,2.911-8.459,2.448c0.579-0.427,1.111-0.883,1.581-1.353
		c4.242-4.242,3.468-9.599,0.589-12.484c-2.625-2.622-7.183-3.382-10.814,0.246c-2.89,2.89-3.649,7.154-2.289,11.066
		c-0.745-0.028-1.447-0.166-2.065-0.423C8,35.851,6.055,35.041,6.055,30.864c0-1.671-1.357-3.027-3.031-3.027
		C1.356,27.837,0,29.193,0,30.864c0,7.153,3.96,9.866,6.322,10.842c2.557,1.056,5.504,1.1,8.314,0.481
		c2.235,1.866,5.175,3.057,8.521,3.057C14.137,57.067,8.915,71.823,8.915,87.805c0,26.6,14.192,50.485,38.412,62.586v42.77
		c0,0.927,0.271,1.787,0.984,2.358c0.716,0.579,1.584,0.796,2.477,0.601l8.894-1.976l9.902,2.619
		c0.257,0.071,0.506,0.102,0.763,0.102c0.663,0,1.31-0.217,1.845-0.629c0.745-0.572,1.179-1.455,1.179-2.396
		c0-4.484,0.007-10.487,0.018-15.985c0.008-4.65,0.015-8.788,0.015-11.485c0-1.902,0.513-7.965,7.103-7.965h104.742v34.647
		c0,0.962,0.317,1.874,1.093,2.445c0.528,0.384,1.078,0.578,1.714,0.578c0.312,0,0.586-0.05,0.883-0.137l8.405-2.705l7.073,2.647
		c0.905,0.347,1.91,0.231,2.721-0.297c0.809-0.528,1.309-1.41,1.36-2.373l1.887-35.551c19.682-1.854,38.966-9.599,53.23-21.454
		c17.707-14.714,27.263-35.017,27.696-58.8c0.007-0.076,0.021-0.152,0.021-0.235C291.333,76.965,291.318,76.759,291.318,76.549z
		 M18.937,33.421c-0.604,0.604-1.403,1.165-2.304,1.646c-0.81-1.776-0.824-3.849,0.647-5.317c0.459-0.459,0.894-0.687,1.306-0.687
		c0.329,0,0.644,0.148,0.94,0.445C20.145,30.126,20.716,31.642,18.937,33.421z M245.119,13.139v14.604
		c-4.036-1.935-7.109-3.425-11.03-4.427C235.737,18.391,239.738,14.333,245.119,13.139z M259.737,131.549
		c-13.859,11.522-32.832,18.921-52.051,20.281c-0.549,0.043-1.056,0.231-1.476,0.521c-0.977,0.462-1.679,1.417-1.742,2.574
		l-1.585,29.715h-11.588v-28.963c0-0.737-0.42-1.259-0.854-1.778c-0.507-0.999-1.663-1.548-2.851-1.548H96.699
		c7.248-6.055,11.935-14.308,11.935-24.073c0-16.535-13.447-30.054-29.979-30.054c-1.67,0-3.027,1.316-3.027,2.992
		c0,1.67,1.357,3.005,3.027,3.005c13.194,0,23.924,10.727,23.924,23.914c0,13.193-10.73,23.927-23.924,23.927
		c-0.517,0-0.994,0.131-1.421,0.362c-6.026,1.375-9.888,6.567-9.888,13.801c0,2.69-0.003,6.974-0.014,11.616
		c0,2.235-0.007,4.781-0.012,6.8H53.382v-36.123c0-1.36-1.049-2.488-2.282-2.879c-0.119-0.08-0.311-0.16-0.448-0.231
		c-22.054-10.93-35.791-32.999-35.791-57.602c0-20.153,9.31-38.091,23.874-49.882l0.014,0.055h-0.007
		c0.007,0,0.011,0.069,0.019,0.062c11.03-8.919,25.056-14.189,40.314-14.189h122.441c3.074,0,7.573-0.018,10.734,0.268
		c1.382,0.127,2.627-0.781,3.097-2.021c0.007-0.014,0.007-0.068,0.021-0.079c0.029-0.091,0.059-0.203,0.088-0.297
		c0.072-0.278,0.137-0.579,0.137-0.886c0-6.677,5.244-12.839,11.661-14.398l-0.37,20.622c0.231,2.109,3.442,1.791,6.128,2.336
		v-0.018c14.79,4.01,25.857,16.369,29.562,33.501c0.015,0.058-0.036,0.097-0.021,0.159c-2.829,2.991-4.651,7.009-4.651,11.442v2.735
		c0,1.67,1.36,3.027,3.031,3.027c1.67,0,3.03-1.357,3.03-3.027V74.48c0-5.873,4.781-10.65,10.654-10.65
		c5.866,0,10.474,5.653,10.641,12.94C284.981,98.969,276.186,117.893,259.737,131.549z M278.082,73.005v6.792
		c0,1.11,0.903,2.018,2.025,2.018c1.113,0,2.01-0.908,2.01-2.018v-6.792c0-1.114-0.896-2.018-2.01-2.018
		C278.985,70.987,278.082,71.892,278.082,73.005z"/>
	<ellipse fill="#303030" cx="233.126" cy="57.47" rx="4.911" ry="4.917"/>
</g>
</svg>
