<?xml version="1.0" encoding="utf-8"?>
<!-- Generator: Adobe Illustrator 16.0.0, SVG Export Plug-In . SVG Version: 6.00 Build 0)  -->
<!DOCTYPE svg PUBLIC "-//W3C//DTD SVG 1.1//EN" "http://www.w3.org/Graphics/SVG/1.1/DTD/svg11.dtd">
<svg version="1.1" id="Layer_1" xmlns="http://www.w3.org/2000/svg" xmlns:xlink="http://www.w3.org/1999/xlink" x="0px" y="0px"
	 width="200px" height="200px" viewBox="0 0 200 200" enable-background="new 0 0 200 200" xml:space="preserve">
<g>
	<path fill="#303030" d="M36.34,199.762c-5.289,0-10.166-0.664-14.501-1.978c-9.929-3.007-16.222-9.207-16.84-16.592
		c-0.587-7.05,4.151-13.621,13.003-18.045c2.127-1.199,47.037-26.757,79.063-56.806c32.963-30.924,61.296-72.445,62.703-74.521
		c4.542-7.585,10.5-11.762,16.793-11.762c8.152,0,14.996,7.158,17.447,18.235c1.854,8.371,1.226,18.475-1.823,29.222
		c-10.031,35.409-34.292,63.817-52.954,81.459c-0.066,0.067-0.129,0.135-0.201,0.196l-0.746,0.689
		c-0.546,0.516-1.123,1.051-1.699,1.581c-0.083,0.072-0.17,0.145-0.253,0.212c-19.018,17.251-49.169,39.245-85.211,46.542
		C45.991,199.236,41.021,199.762,36.34,199.762 M176.561,27.382c-3.579,0-7.426,3.018-10.557,8.278
		c-0.041,0.059-0.072,0.116-0.108,0.17c-0.293,0.435-29.58,43.729-63.819,75.852c-33.303,31.246-80.093,57.631-80.562,57.893
		c-0.051,0.031-0.108,0.057-0.165,0.086c-6.082,3.02-9.388,7-9.059,10.919c0.355,4.218,4.825,8.127,11.674,10.202
		c6.978,2.111,15.979,2.209,25.697,0.242c34.56-6.999,63.65-28.329,81.973-44.993c0.067-0.062,0.145-0.129,0.217-0.186
		c0.483-0.442,0.968-0.896,1.452-1.347l0.576-0.535c0.047-0.049,0.098-0.101,0.145-0.146c18.019-16.997,41.506-44.378,51.121-78.296
		c3.435-12.107,2.827-20.63,1.709-25.648C185.181,32.282,181.134,27.382,176.561,27.382"/>
	<path fill="#303030" d="M178.61,27.248c-0.206,0-0.412-0.016-0.623-0.054c-1.988-0.337-3.327-2.229-2.987-4.223l3.363-19.687
		c0.345-1.996,2.24-3.337,4.228-2.992c1.993,0.34,3.332,2.235,2.992,4.228l-3.368,19.685
		C181.906,25.989,180.361,27.248,178.61,27.248"/>
	<path fill="#303030" d="M8.609,184.622c-1.735,0-3.28-1.241-3.6-3.008c-0.36-1.992,0.958-3.897,2.951-4.259
		c0.375-0.071,19.852-3.836,47.835-19.965c25.98-14.965,64.803-43.947,102.289-97.015c1.169-1.653,3.45-2.044,5.103-0.881
		c1.653,1.167,2.045,3.45,0.881,5.104c-38.386,54.345-78.28,84.022-104.986,99.353c-29.132,16.721-48.984,20.46-49.818,20.609
		C9.047,184.602,8.825,184.622,8.609,184.622"/>
</g>
</svg>
